<?xml version="1.0" encoding="utf-8"?>
<!-- Generator: Adobe Illustrator 16.0.4, SVG Export Plug-In . SVG Version: 6.00 Build 0)  -->
<!DOCTYPE svg PUBLIC "-//W3C//DTD SVG 1.1//EN" "http://www.w3.org/Graphics/SVG/1.1/DTD/svg11.dtd">
<svg version="1.1" id="pfade" xmlns="http://www.w3.org/2000/svg" xmlns:xlink="http://www.w3.org/1999/xlink" x="0px" y="0px"
	 width="80px" height="80px" viewBox="0 0 80 80" enable-background="new 0 0 80 80" xml:space="preserve">
<g>
	
		<polyline fill="none" stroke="#FFFFFF" stroke-width="2" stroke-linecap="round" stroke-linejoin="round" stroke-miterlimit="10" points="
		18.383,20.011 26.332,20.02 25.764,39.881 18.366,39.753 	"/>
	
		<line fill="none" stroke="#FFFFFF" stroke-width="2" stroke-linecap="round" stroke-linejoin="round" stroke-miterlimit="10" x1="20.811" y1="32.484" x2="20.752" y2="36.256"/>
	<g>
		<path fill="none" stroke="#FFFFFF" stroke-width="2" stroke-linecap="round" stroke-linejoin="round" stroke-miterlimit="10" d="
			M26.352,22.282l13.241,0.642L54.281,35.62c0,0,5.977,17.129,7.178,20.207c1.036,2.333-2.816,3.616-3.754,1.435
			c0,0-3.197,3.6-4.196,1.214c-1-2.386-7.206-17.201-7.206-17.201s0.773,15.516,0.8,17.255c0.028,1.74-3.031,2.14-3.368,0
			c-0.337-2.139-2.375-15.075-2.375-15.075s-4.859,8.366-5.632,9.608c-0.773,1.242-2.486,0.834-2.209-0.552
			c0.277-1.386,2.209-11.043,2.209-11.043s-3.976-5.992-4.583-8.531l-4.792-0.301"/>
		
			<line fill="none" stroke="#FFFFFF" stroke-width="2" stroke-linecap="round" stroke-linejoin="round" stroke-miterlimit="10" x1="50.36" y1="37.99" x2="57.705" y2="57.261"/>
		<path fill="none" stroke="#FFFFFF" stroke-width="2" stroke-linecap="round" stroke-linejoin="round" stroke-miterlimit="10" d="
			M40.136,23.385c4.574,1.493,9.592,5.127,15.79,5.025c0,0,0.062,4.073-5.271,4.073"/>
	</g>
</g>
</svg>
